HIERARCHY
ROOT Hips
{
	OFFSET 0.000000 0.000000 0.000000
	CHANNELS 6 Xposition Yposition Zposition Zrotation Yrotation Xrotation 
	JOINT LHipJoint
	{
		OFFSET 0.000000 0.000000 0.000000
		CHANNELS 3 Zrotation Yrotation Xrotation
		JOINT LeftUpLeg
		{
			OFFSET 1.363060 -1.794630 0.839290
			CHANNELS 3 Zrotation Yrotation Xrotation
			JOINT LeftLeg
			{
				OFFSET 2.448110 -6.726130 0.000000
				CHANNELS 3 Zrotation Yrotation Xrotation
				JOINT LeftFoot
				{
					OFFSET 2.562200 -7.039590 0.000000
					CHANNELS 3 Zrotation Yrotation Xrotation
					JOINT LeftToeBase
					{
						OFFSET 0.157640 -0.433110 2.322550
						CHANNELS 3 Zrotation Yrotation Xrotation
						End Site
						{
							OFFSET 0.000000 0.000000 0.000000
						}
					}
				}
			}
		}
	}
	JOINT RHipJoint
	{
		OFFSET 0.000000 0.000000 0.000000
		CHANNELS 3 Zrotation Yrotation Xrotation
		JOINT RightUpLeg
		{
			OFFSET -1.305520 -1.794630 0.839290
			CHANNELS 3 Zrotation Yrotation Xrotation
			JOINT RightLeg
			{
				OFFSET -2.542530 -6.985550 0.000000
				CHANNELS 3 Zrotation Yrotation Xrotation
				JOINT RightFoot
				{
					OFFSET -2.568260 -7.056230 0.000000
					CHANNELS 3 Zrotation Yrotation Xrotation
					JOINT RightToeBase
					{
						OFFSET -0.164730 -0.452590 2.363150
						CHANNELS 3 Zrotation Yrotation Xrotation
						End Site
						{
							OFFSET 0.000000 0.000000 0.000000
						}
					}
				}
			}
		}
	}
	JOINT LowerBack
	{
		OFFSET 0.000000 0.000000 0.000000
		CHANNELS 3 Zrotation Yrotation Xrotation
		JOINT Spine
		{
			OFFSET 0.028270 2.035590 -0.193380
			CHANNELS 3 Zrotation Yrotation Xrotation
			JOINT Spine1
			{
				OFFSET 0.056720 2.048850 -0.042750
				CHANNELS 3 Zrotation Yrotation Xrotation
				JOINT Neck
				{
					OFFSET 0.000000 0.000000 0.000000
					CHANNELS 3 Zrotation Yrotation Xrotation
					JOINT Neck1
					{
						OFFSET -0.054170 1.746240 0.172020
						CHANNELS 3 Zrotation Yrotation Xrotation
						JOINT Head
						{
							OFFSET 0.104070 1.761360 -0.123970
							CHANNELS 3 Zrotation Yrotation Xrotation
							End Site
							{
								OFFSET 0.000000 0.000000 0.000000
							}
						}
					}
				}
				JOINT LeftShoulder
				{
					OFFSET 0.000000 0.000000 0.000000
					CHANNELS 3 Zrotation Yrotation Xrotation
					JOINT LeftArm
					{
						OFFSET 3.362410 1.200890 -0.311210
						CHANNELS 3 Zrotation Yrotation Xrotation
						JOINT LeftForeArm
						{
							OFFSET 4.983000 -0.000000 -0.000000
							CHANNELS 3 Zrotation Yrotation Xrotation
							JOINT LeftHand
							{
								OFFSET 3.483560 -0.000000 -0.000000
								CHANNELS 3 Zrotation Yrotation Xrotation
								JOINT LeftFingerBase
								{
									OFFSET 0.000000 0.000000 0.000000
									CHANNELS 3 Zrotation Yrotation Xrotation
									JOINT LeftHandIndex1
									{
										OFFSET 0.715260 -0.000000 -0.000000
										CHANNELS 3 Zrotation Yrotation Xrotation
										End Site
										{
											OFFSET 0.000000 0.000000 0.000000
										}
									}
								}
								JOINT LThumb
								{
									OFFSET 0.000000 0.000000 0.000000
									CHANNELS 3 Zrotation Yrotation Xrotation
									End Site
									{
										OFFSET 0.000000 0.000000 0.000000
									}
								}
							}
						}
					}
				}
				JOINT RightShoulder
				{
					OFFSET 0.000000 0.000000 0.000000
					CHANNELS 3 Zrotation Yrotation Xrotation
					JOINT RightArm
					{
						OFFSET -3.136600 1.374050 -0.404650
						CHANNELS 3 Zrotation Yrotation Xrotation
						JOINT RightForeArm
						{
							OFFSET -5.241900 -0.000000 -0.000000
							CHANNELS 3 Zrotation Yrotation Xrotation
							JOINT RightHand
							{
								OFFSET -3.444170 -0.000000 -0.000000
								CHANNELS 3 Zrotation Yrotation Xrotation
								JOINT RightFingerBase
								{
									OFFSET 0.000000 0.000000 0.000000
									CHANNELS 3 Zrotation Yrotation Xrotation
									JOINT RightHandIndex1
									{
										OFFSET -0.622530 -0.000000 -0.000000
										CHANNELS 3 Zrotation Yrotation Xrotation
										End Site
										{
											OFFSET 0.000000 0.000000 0.000000
										}
									}
								}
								JOINT RThumb
								{
									OFFSET 0.000000 0.000000 0.000000
									CHANNELS 3 Zrotation Yrotation Xrotation
									End Site
									{
										OFFSET 0.000000 0.000000 0.000000
									}
								}
							}
						}
					}
				}
			}
		}
	}
}
MOTION
Frames: 4
Frame Time: 0.008333
2.428574 17.388463 0.803683 -0.206178 -51.021130 2.552472 -9.168086 2.762824 7.983464 0.411456 -20.330354 -8.136817 -1.334498 -0.547735 7.284959 0.761691 7.293200 3.181527 1.631700 0.000000 -54.617600 11.476088 -4.273955 -2.782091 -1.645298 -33.351119 3.893565 1.241920 -0.455699 6.859648 -2.727001 -19.005335 11.283749 -6.808700 0.000000 -73.354400 -4.019505 3.116650 -7.685316 -1.759613 3.250998 -4.138858 -4.438863 3.273057 -0.291309 -2.166201 -3.400538 -6.920629 -1.536012 -0.122065 0.195316 0.000000 0.000000 0.000000 8.508620 11.755607 -2.414187 -36.034329 -29.494324 -4.884082 179.421852 -55.427952 -179.977866 -4.279576 -5.982627 0.273773 0.345452 0.838743 0.000000 0.000000 0.000000 0.000000 0.000000 0.000000 0.000000 -6.343104 2.559697 4.447960 -4.052196 39.092288 -36.619606 0.299965 -2.631463 -0.052040 -11.875547 1.790923 -0.223034 0.307968 -0.297775 -0.000000 0.000000 0.000000 0.000000 0.000000 0.000000 0.000000 
2.406799 17.391400 0.802876 -0.436352 -50.600160 2.996510 -9.124356 2.816613 8.145944 0.748955 -20.929831 -8.209931 -1.324833 -0.566094 6.693221 0.802660 7.609911 3.322783 1.721100 -0.000000 -54.179700 11.457853 -4.262223 -2.779121 -1.205124 -33.270897 3.678013 1.235487 -0.445821 6.978398 -2.770732 -19.338776 11.380886 -6.978300 -0.000001 -73.353700 -4.053152 2.866562 -7.844701 -1.726637 3.005458 -4.138127 -4.375954 3.029936 -0.155737 -2.071636 -5.206890 -7.444141 -1.263798 -0.095198 0.059830 0.000000 0.000000 0.000000 8.636705 11.883494 -2.209543 -34.739790 -26.389668 -5.773581 179.474523 -53.973920 -179.979562 -4.118691 -6.054589 0.266318 0.334628 0.836584 0.000000 0.000000 0.000000 0.000000 0.000000 0.000000 0.000000 -7.549412 1.070245 4.001606 -1.255078 41.105988 -39.784295 -0.225285 0.546680 -0.056076 -11.822467 4.079518 -0.470774 0.263273 -0.364655 -0.000000 0.000000 0.000000 0.000000 0.000000 0.000000 0.000000 
2.386516 17.392590 0.805993 -0.615693 -50.038399 3.429909 -9.070196 2.873796 8.357310 1.113577 -21.826340 -8.354852 -1.313402 -0.571706 6.163343 0.858749 7.995194 3.415365 1.818500 0.000001 -53.673100 11.434106 -4.227495 -2.793719 -0.808868 -33.143067 3.522211 1.215785 -0.435689 7.112753 -2.809427 -19.653177 11.530852 -7.160301 -0.000000 -73.485400 -4.053011 2.529494 -8.026516 -1.703793 2.661404 -4.164145 -4.418383 2.689905 -0.073353 -1.795218 -6.891390 -7.870326 -1.043888 -0.073200 -0.047946 0.000000 0.000000 0.000000 8.554414 11.882198 -1.915003 -32.978327 -22.977608 -6.868228 179.593060 -52.504458 -179.980969 -3.919149 -6.137388 0.256373 0.317449 0.836949 0.000000 0.000000 0.000000 0.000000 0.000000 0.000000 0.000000 -8.453930 -0.284046 3.385437 2.903216 41.781358 -37.015139 -0.636194 7.875186 -0.063610 -11.252937 4.344170 -0.477553 0.213641 -0.409823 -0.000000 0.000000 0.000000 0.000000 0.000000 0.000000 0.000000 
2.367226 17.391731 0.812419 -0.772094 -49.387732 3.832233 -8.990311 2.946933 8.620519 1.498933 -22.916777 -8.567294 -1.303138 -0.568484 5.721167 0.921747 8.393884 3.456949 1.912400 -0.000001 -53.157801 11.425500 -4.183935 -2.795740 -0.468814 -32.982006 3.419488 1.184369 -0.422446 7.263560 -2.837936 -19.916319 11.702279 -7.331099 -0.000000 -73.709000 -4.129110 2.107881 -8.268063 -1.718150 2.230822 -4.244139 -4.557297 2.258473 -0.094586 -1.151939 -7.691258 -8.092146 -1.021720 -0.069094 -0.101996 0.000000 0.000000 0.000000 8.596199 11.740802 -1.540203 -31.175465 -19.269049 -7.899600 179.783571 -51.098460 -179.981377 -3.752658 -6.215797 0.247830 0.296362 0.837601 -0.000000 0.000000 0.000000 0.000000 0.000000 0.000000 0.000000 -8.154221 -0.838227 2.822091 5.918381 40.196021 -29.699373 -0.816409 18.277725 -0.075992 -11.549602 2.510830 -0.301582 0.190806 -0.423079 -0.000000 0.000000 0.000000 0.000000 0.000000 0.000000 0.000000 
